<svg xmlns="http://www.w3.org/2000/svg" style="display:none" aria-hidden="true">
  <symbol id="icon-solved" viewBox="0 0 24 24">
    <path
      fill="none"
      stroke="currentColor"
      stroke-width="2"
      stroke-linecap="round"
      stroke-linejoin="round"
      d="M20 6L9 17l-5-5"
    />
  </symbol>
  <symbol id="icon-bookmark" viewBox="0 0 24 24">
    <path
      fill="none"
      stroke="currentColor"
      stroke-width="2"
      stroke-linecap="round"
      stroke-linejoin="round"
      d="M19 21l-7-5-7 5V5a2 2 0 0 1 2-2h10a2 2 0 0 1 2 2z"
    />
  </symbol>
  <symbol id="icon-like" viewBox="0 0 24 24">
    <path
      fill="none"
      stroke="currentColor"
      stroke-width="2"
      stroke-linecap="round"
      stroke-linejoin="round"
      d="M14 9V5a3 3 0 0 0-3-3l-4 9v11h11.28a2 2 0 0 0 2-1.7l1.38-9a2 2 0 0 0-2-2.3zM7 22H4a2 2 0 0 1-2-2v-7a2 2 0 0 1 2-2h3"
    />
  </symbol>
  <symbol id="icon-notes" viewBox="0 0 24 24">
    <path
      fill="none"
      stroke="currentColor"
      stroke-width="2"
      stroke-linecap="round"
      stroke-linejoin="round"
      d="M14 2H6a2 2 0 0 0-2 2v16a2 2 0 0 0 2 2h12a2 2 0 0 0 2-2V8z"
    />
    <polyline points="14 2 14 8 20 8" />
    <line x1="16" y1="13" x2="8" y2="13" />
    <line x1="16" y1="17" x2="8" y2="17" />
    <polyline points="10 9 9 9 8 9" />
  </symbol>
</svg>
